<?xml version="1.0" encoding="UTF-8" standalone="no"?>
<!-- Created with Inkscape (http://www.inkscape.org/) -->

<svg
   xmlns:dc="http://purl.org/dc/elements/1.1/"
   xmlns:cc="http://creativecommons.org/ns#"
   xmlns:rdf="http://www.w3.org/1999/02/22-rdf-syntax-ns#"
   xmlns:svg="http://www.w3.org/2000/svg"
   xmlns="http://www.w3.org/2000/svg"
   xmlns:sodipodi="http://sodipodi.sourceforge.net/DTD/sodipodi-0.dtd"
   xmlns:inkscape="http://www.inkscape.org/namespaces/inkscape"
   version="1.1"
   width="1349.2704"
   height="769.97009"
   id="svg5084"
   inkscape:version="0.47 r22583"
   sodipodi:docname="ZZ4.svg">
  <sodipodi:namedview
     pagecolor="#ffffff"
     bordercolor="#666666"
     borderopacity="1"
     objecttolerance="10"
     gridtolerance="10"
     guidetolerance="10"
     inkscape:pageopacity="0"
     inkscape:pageshadow="2"
     inkscape:window-width="1280"
     inkscape:window-height="1004"
     id="namedview9"
     showgrid="false"
     inkscape:zoom="0.25708061"
     inkscape:cx="667.65911"
     inkscape:cy="419.98506"
     inkscape:window-x="-8"
     inkscape:window-y="-8"
     inkscape:window-maximized="1"
     inkscape:current-layer="g5102" />
  <metadata
     id="metadata5090">
    <rdf:RDF>
      <cc:Work
         rdf:about="">
        <dc:format>image/svg+xml</dc:format>
        <dc:type
           rdf:resource="http://purl.org/dc/dcmitype/StillImage" />
        <dc:title />
      </cc:Work>
    </rdf:RDF>
  </metadata>
  <defs
     id="defs5088">
    <inkscape:perspective
       sodipodi:type="inkscape:persp3d"
       inkscape:vp_x="0 : 459 : 1"
       inkscape:vp_y="0 : 1000 : 0"
       inkscape:vp_z="1514 : 459 : 1"
       inkscape:persp3d-origin="757 : 306 : 1"
       id="perspective11" />
  </defs>
  <g
     id="g5102"
     transform="translate(-89.340894,-109.01497)">
    <path
       d="m 1074.0968,878.08101 c -1.1277,-0.71397 5.3014,-17.19808 32.75,-83.97135 18.7843,-45.69564 34.1532,-83.55947 34.1532,-84.14184 0,-0.58237 -4.6946,-13.30087 -10.4324,-28.26334 C 1124.8297,666.74202 1106.3414,618.5 1089.4825,574.5 1033.3206,427.92385 1012.9987,374.90231 994.29183,326.13957 c -14.83777,-38.67733 -18.27612,-48.53549 -17.17216,-49.23469 0.75918,-0.48084 32.24813,-0.88115 69.97533,-0.88957 65.1946,-0.0145 68.6771,0.0753 70.25,1.81343 0.9103,1.00581 1.655,2.11587 1.655,2.4668 0,0.57357 12.8791,38.34992 48.8226,143.20446 6.5988,19.25 17.8905,52.325 25.0925,73.5 14.7383,43.33227 15.8477,46.17526 17.127,43.8893 0.4763,-0.85118 12.3219,-36.38698 26.3234,-78.96845 14.0016,-42.58147 33.3756,-101.47136 43.0534,-130.86643 9.6778,-29.39507 18.1551,-53.80068 18.8385,-54.23469 0.6834,-0.43401 32.4192,-0.796 70.524,-0.80442 58.6207,-0.0129 69.3644,0.20109 69.821,1.39104 0.2969,0.7735 -6.8752,21.136 -15.9378,45.25 -19.7105,52.44613 -78.4988,208.91885 -134.633,358.34365 -22.418,59.675 -48.0901,128.075 -57.049,152 -8.9589,23.925 -16.981,44.0625 -17.8269,44.75 -1.1972,0.97303 -16.618,1.24661 -69.5968,1.23469 -37.9209,-0.009 -68.6803,-0.4087 -69.4621,-0.90368 z M 278,719.02069 C 207.98106,707.06737 147.621,663.24371 115.01738,600.68922 80.217122,533.92017 80.820367,455.65092 116.65041,388.80896 c 29.0034,-54.10668 82.28276,-95.99362 141.05127,-110.8911 23.32961,-5.91393 27.57818,-6.38146 57.79832,-6.36042 26.41237,0.0184 28.78373,0.17431 41.82215,2.75 45.44484,8.97747 85.1791,30.13534 117.69288,62.66964 36.97192,36.99524 59.0826,83.45689 64.97005,136.52292 0.60602,5.46234 1.00174,54.06312 1.00672,123.64301 0.007,103.62175 -0.14387,114.70137 -1.57359,115.25 -2.06664,0.79304 -124.76978,0.79304 -126.83642,0 C 411.16463,711.8492 411,705.76658 411,653.95203 c 0,-31.8087 -0.38254,-58.07042 -0.85009,-58.35938 -0.82178,-0.50789 -20.76847,20.48745 -83.47396,87.86241 C 294.03,718.53203 291.55207,721.04416 289.73422,720.9066 289.0554,720.85524 283.775,720.00658 278,719.02069 z M 410.79357,541 c 0.1943,-33.42301 -0.0846,-53.16684 -0.82465,-58.38636 -5.19076,-36.6082 -30.95282,-66.70286 -66.76621,-77.99478 -44.34088,-13.98062 -92.76886,6.79383 -113.94836,48.88114 -7.03573,13.98121 -10.99855,33.44306 -9.8656,48.45104 2.95009,39.07915 28.17828,72.26676 64.34903,84.65095 5.3695,1.83842 12.23762,3.75441 15.26248,4.25775 3.02486,0.50335 29.34974,0.85332 58.49974,0.77772 L 410.5,591.5 410.79357,541 z M 601,411.01905 l 0,-300.98095 2.25,-0.54498 c 1.2375,-0.29975 31.5,-0.42082 67.25,-0.26906 l 65,0.27594 0.25164,301.25 0.25164,301.25 -67.50164,0 L 601,712 601,411.01905 z M 801.60968,710.42522 C 801.27435,709.55138 801,574.41323 801,410.11821 801,179.11516 801.27202,111.12798 802.2,110.2 c 0.90924,-0.90924 17.08268,-1.19629 66.75,-1.18469 36.0525,0.008 66.11324,0.37294 66.80165,0.81004 0.99857,0.63403 1.20076,61.54212 1,301.23469 L 936.5,711.5 l -67.14032,0.257 c -60.57579,0.23188 -67.19994,0.10166 -67.75,-1.33178 z"
       id="path5106"
       style="fill:#50104a" />
    <path
       d="m 1075,876.55591 c 0,-0.24424 8.3709,-20.83174 18.602,-45.75 10.2311,-24.91825 20.5349,-50.03091 22.8974,-55.80591 2.3625,-5.775 9.014,-21.975 14.7811,-36 5.7672,-14.025 10.7647,-26.42134 11.1057,-27.54743 0.4097,-1.3529 -4.8371,-16.27836 -15.4673,-44 C 1103.0841,605.29591 1071.4256,522.68726 1032.4698,421 1013.4013,371.225 993.34483,318.88148 987.89989,304.68106 982.45495,290.48065 978,278.66507 978,278.42422 c 0,-0.24085 31.1331,-0.32233 69.1846,-0.18107 l 69.1847,0.25685 14.8994,43.5 c 41.2807,120.52259 61.287,178.99073 70.8143,206.95373 2.7084,7.94955 5.376,14.90526 5.9279,15.45714 0.6712,0.67122 1.462,0.52101 2.3887,-0.45373 0.7619,-0.80143 9.119,-25.08214 18.5713,-53.95714 16.2179,-49.54232 24.1456,-73.6306 56.2782,-171 l 13.3653,-40.5 69.1928,-0.25685 c 38.056,-0.14126 69.1928,0.11595 69.1928,0.57157 0,0.45563 -9.7089,26.67121 -21.5752,58.25685 -11.8664,31.58564 -45.6662,121.55343 -75.1107,199.92843 -29.4445,78.375 -68.5942,182.55 -86.9994,231.5 -18.4051,48.95 -34.8456,92.825 -36.5342,97.5 -1.6887,4.675 -3.5102,9.0625 -4.0479,9.75 -0.765,0.97828 -15.841,1.25 -69.355,1.25 C 1105.7699,877 1075,876.80016 1075,876.55591 z M 602.46534,709.7572 C 602.20277,709.06574 602.10315,574.175 602.24396,410 L 602.5,111.5 l 66,0 66,0 0,299.5 0,299.5 -65.77862,0.2572 c -52.09322,0.20369 -65.87795,-0.004 -66.25604,-1 z m 201.20133,0.57613 C 803.3,709.96667 803,574.96667 803,410.33333 L 803,111 l 66,0 66,0 0,300 0,300 -65.33333,0 c -35.93334,0 -65.63334,-0.3 -66,-0.66667 z"
       id="path5104"
       style="fill:#000000" />
  </g>
</svg>
